{
    "asset" : {
        "generator" : "Khronos glTF Blender I/O v1.8.19",
        "version" : "2.0"
    },
    "scene" : 0,
    "scenes" : [
        {
            "name" : "Scene",
            "nodes" : [
                0
            ]
        }
    ],
    "nodes" : [
        {
            "mesh" : 0,
            "name" : "Plane.1",
            "rotation" : [
                0.7071068286895752,
                0,
                0,
                0.7071067094802856
            ]
        }
    ],
    "meshes" : [
        {
            "name" : "Plane.1",
            "primitives" : [
                {
                    "attributes" : {
                        "POSITION" : 0,
                        "NORMAL" : 1,
                        "TEXCOORD_0" : 2
                    },
                    "indices" : 3
                }
            ]
        }
    ],
    "accessors" : [
        {
            "bufferView" : 0,
            "componentType" : 5126,
            "count" : 2888,
            "max" : [
                228.13365173339844,
                133.34600830078125,
                146.1553955078125
            ],
            "min" : [
                -228.13365173339844,
                -133.34600830078125,
                -146.1553955078125
            ],
            "type" : "VEC3"
        },
        {
            "bufferView" : 1,
            "componentType" : 5126,
            "count" : 2888,
            "type" : "VEC3"
        },
        {
            "bufferView" : 2,
            "componentType" : 5126,
            "count" : 2888,
            "type" : "VEC2"
        },
        {
            "bufferView" : 3,
            "componentType" : 5123,
            "count" : 11838,
            "type" : "SCALAR"
        }
    ],
    "bufferViews" : [
        {
            "buffer" : 0,
            "byteLength" : 34656,
            "byteOffset" : 0
        },
        {
            "buffer" : 0,
            "byteLength" : 34656,
            "byteOffset" : 34656
        },
        {
            "buffer" : 0,
            "byteLength" : 23104,
            "byteOffset" : 69312
        },
        {
            "buffer" : 0,
            "byteLength" : 23676,
            "byteOffset" : 92416
        }
    ],
    "buffers" : [
        {
            "byteLength" : 116092,
            "uri" : "data:application/octet-stream;base64,"
        }
    ]
}
