<svg id="visual" viewBox="0 0 2880 1566" width="2880" height="1566" xmlns="http://www.w3.org/2000/svg" xmlns:xlink="http://www.w3.org/1999/xlink" version="1.1"><g id="background1" stroke-width="1" stroke-linejoin="bevel"><path d="M1396.2 762L1490.8 725L1510.8 602.3Z" fill="#14293a" stroke="#14293a"></path><path d="M1510.8 602.3L1401.2 512.3L1396.2 762Z" fill="#132434" stroke="#132434"></path><path d="M1401.2 512.3L1174.7 585.3L1396.2 762Z" fill="#143346" stroke="#143346"></path><path d="M1324.2 451.5L1174.7 585.3L1401.2 512.3Z" fill="#133e52" stroke="#133e52"></path><path d="M1396.2 762L1559.8 925.8L1490.8 725Z" fill="#133e52" stroke="#133e52"></path><path d="M1799.3 522.3L1722.3 464.5L1510.8 602.3Z" fill="#101a28" stroke="#101a28"></path><path d="M1272.2 996.8L1559.8 925.8L1396.2 762Z" fill="#050816" stroke="#050816"></path><path d="M1722.3 464.5L1612.8 367.5L1510.8 602.3Z" fill="#132434" stroke="#132434"></path><path d="M1510.8 602.3L1612.8 367.5L1401.2 512.3Z" fill="#0e1522" stroke="#0e1522"></path><path d="M1401.2 512.3L1612.8 367.5L1324.2 451.5Z" fill="#0e1522" stroke="#0e1522"></path><path d="M1799.3 522.3L1510.8 602.3L1823.3 831Z" fill="#0b101c" stroke="#0b101c"></path><path d="M1043.7 816L1272.2 996.8L1396.2 762Z" fill="#14293a" stroke="#14293a"></path><path d="M1174.7 585.3L1043.7 816L1396.2 762Z" fill="#101a28" stroke="#101a28"></path><path d="M1823.3 831L1510.8 602.3L1490.8 725Z" fill="#133e52" stroke="#133e52"></path><path d="M1729.3 227.8L1619.8 222.8L1612.8 367.5Z" fill="#101a28" stroke="#101a28"></path><path d="M1344.2 143.8L1126.7 319.5L1324.2 451.5Z" fill="#0e1522" stroke="#0e1522"></path><path d="M1324.2 451.5L1126.7 319.5L1174.7 585.3Z" fill="#14293a" stroke="#14293a"></path><path d="M1174.7 585.3L928.2 768L1043.7 816Z" fill="#143346" stroke="#143346"></path><path d="M1043.7 816L1060.7 935.8L1272.2 996.8Z" fill="#14394c" stroke="#14394c"></path><path d="M1559.8 925.8L1823.3 831L1490.8 725Z" fill="#133e52" stroke="#133e52"></path><path d="M1729.3 227.8L1612.8 367.5L1722.3 464.5Z" fill="#0e1522" stroke="#0e1522"></path><path d="M1612.8 367.5L1344.2 143.8L1324.2 451.5Z" fill="#14293a" stroke="#14293a"></path><path d="M1055.7 1232.5L1374.2 1126.5L1272.2 996.8Z" fill="#0e1522" stroke="#0e1522"></path><path d="M1272.2 996.8L1374.2 1126.5L1559.8 925.8Z" fill="#050816" stroke="#050816"></path><path d="M1559.8 925.8L1738.3 1005.8L1823.3 831Z" fill="#133e52" stroke="#133e52"></path><path d="M1520.8 1215.5L1738.3 1005.8L1559.8 925.8Z" fill="#142e40" stroke="#142e40"></path><path d="M889.2 611.3L928.2 768L1174.7 585.3Z" fill="#101a28" stroke="#101a28"></path><path d="M1043.7 816L928.2 768L1060.7 935.8Z" fill="#143346" stroke="#143346"></path><path d="M1619.8 222.8L1344.2 143.8L1612.8 367.5Z" fill="#050816" stroke="#050816"></path><path d="M912.2 340.5L889.2 611.3L1174.7 585.3Z" fill="#142e40" stroke="#142e40"></path><path d="M1961.8 387.5L1729.3 227.8L1722.3 464.5Z" fill="#14394c" stroke="#14394c"></path><path d="M1619.8 0L1366.2 0L1344.2 143.8Z" fill="#132434" stroke="#132434"></path><path d="M1968.8 911.8L1919.8 813L1823.3 831Z" fill="#133e52" stroke="#133e52"></path><path d="M1823.3 831L1919.8 813L1799.3 522.3Z" fill="#14394c" stroke="#14394c"></path><path d="M1799.3 522.3L1961.8 387.5L1722.3 464.5Z" fill="#0e1522" stroke="#0e1522"></path><path d="M1374.2 1126.5L1520.8 1215.5L1559.8 925.8Z" fill="#143346" stroke="#143346"></path><path d="M924.2 148.8L912.2 340.5L1126.7 319.5Z" fill="#101a28" stroke="#101a28"></path><path d="M1126.7 319.5L912.2 340.5L1174.7 585.3Z" fill="#132434" stroke="#132434"></path><path d="M1344.2 143.8L1117.7 138.8L1126.7 319.5Z" fill="#050816" stroke="#050816"></path><path d="M1919.8 813L1999.8 551.3L1799.3 522.3Z" fill="#0e1522" stroke="#0e1522"></path><path d="M1520.8 1215.5L1799.3 1107.5L1738.3 1005.8Z" fill="#143346" stroke="#143346"></path><path d="M1738.3 1005.8L1968.8 911.8L1823.3 831Z" fill="#14293a" stroke="#14293a"></path><path d="M1999.8 551.3L1961.8 387.5L1799.3 522.3Z" fill="#0e1522" stroke="#0e1522"></path><path d="M1799.3 1107.5L1968.8 911.8L1738.3 1005.8Z" fill="#050816" stroke="#050816"></path><path d="M1919.8 813L2161.4 783L1999.8 551.3Z" fill="#133e52" stroke="#133e52"></path><path d="M1619.8 0L1344.2 143.8L1619.8 222.8Z" fill="#14394c" stroke="#14394c"></path><path d="M1344.2 143.8L1366.2 0L1117.7 138.8Z" fill="#132434" stroke="#132434"></path><path d="M928.2 768L845.2 977.8L1060.7 935.8Z" fill="#121f2e" stroke="#121f2e"></path><path d="M1060.7 935.8L1055.7 1232.5L1272.2 996.8Z" fill="#121f2e" stroke="#121f2e"></path><path d="M1374.2 1126.5L1314.2 1324.3L1520.8 1215.5Z" fill="#143346" stroke="#143346"></path><path d="M635.6 834L845.2 977.8L928.2 768Z" fill="#133e52" stroke="#133e52"></path><path d="M721.6 634.3L928.2 768L889.2 611.3Z" fill="#14293a" stroke="#14293a"></path><path d="M867.2 1104.5L1055.7 1232.5L1060.7 935.8Z" fill="#0b101c" stroke="#0b101c"></path><path d="M1055.7 1232.5L1314.2 1324.3L1374.2 1126.5Z" fill="#101a28" stroke="#101a28"></path><path d="M1520.8 1215.5L1726.3 1341.3L1799.3 1107.5Z" fill="#142e40" stroke="#142e40"></path><path d="M1741.3 0L1619.8 0L1729.3 227.8Z" fill="#133e52" stroke="#133e52"></path><path d="M1729.3 227.8L1619.8 0L1619.8 222.8Z" fill="#14394c" stroke="#14394c"></path><path d="M649.6 423.5L721.6 634.3L889.2 611.3Z" fill="#14293a" stroke="#14293a"></path><path d="M1117.7 138.8L924.2 148.8L1126.7 319.5Z" fill="#101a28" stroke="#101a28"></path><path d="M912.2 340.5L649.6 423.5L889.2 611.3Z" fill="#101a28" stroke="#101a28"></path><path d="M1049.7 0L924.2 148.8L1117.7 138.8Z" fill="#14394c" stroke="#14394c"></path><path d="M845.2 977.8L867.2 1104.5L1060.7 935.8Z" fill="#142e40" stroke="#142e40"></path><path d="M731.6 1163.5L867.2 1104.5L845.2 977.8Z" fill="#121f2e" stroke="#121f2e"></path><path d="M1314.2 1324.3L1559.8 1351.3L1520.8 1215.5Z" fill="#0e1522" stroke="#0e1522"></path><path d="M1978.8 144.8L1741.3 0L1729.3 227.8Z" fill="#0b101c" stroke="#0b101c"></path><path d="M1366.2 0L1049.7 0L1117.7 138.8Z" fill="#0b101c" stroke="#0b101c"></path><path d="M1961.8 387.5L1978.8 144.8L1729.3 227.8Z" fill="#050816" stroke="#050816"></path><path d="M2221.4 218.8L1978.8 144.8L1961.8 387.5Z" fill="#142e40" stroke="#142e40"></path><path d="M1559.8 1351.3L1726.3 1341.3L1520.8 1215.5Z" fill="#132434" stroke="#132434"></path><path d="M1799.3 1107.5L1954.8 1211.5L1968.8 911.8Z" fill="#143346" stroke="#143346"></path><path d="M2283.4 1029.8L2161.4 783L1968.8 911.8Z" fill="#121f2e" stroke="#121f2e"></path><path d="M1968.8 911.8L2161.4 783L1919.8 813Z" fill="#143346" stroke="#143346"></path><path d="M1999.8 551.3L2171.4 426.5L1961.8 387.5Z" fill="#133e52" stroke="#133e52"></path><path d="M1926.8 1309.3L1954.8 1211.5L1799.3 1107.5Z" fill="#132434" stroke="#132434"></path><path d="M1049.7 0L958.2 0L924.2 148.8Z" fill="#133e52" stroke="#133e52"></path><path d="M685.6 216.8L649.6 423.5L912.2 340.5Z" fill="#14394c" stroke="#14394c"></path><path d="M685.6 216.8L912.2 340.5L924.2 148.8Z" fill="#0e1522" stroke="#0e1522"></path><path d="M721.6 634.3L635.6 834L928.2 768Z" fill="#143346" stroke="#143346"></path><path d="M422.1 736L635.6 834L721.6 634.3Z" fill="#14394c" stroke="#14394c"></path><path d="M2233.4 581.3L2171.4 426.5L1999.8 551.3Z" fill="#133e52" stroke="#133e52"></path><path d="M1055.7 1232.5L1042.7 1387.3L1314.2 1324.3Z" fill="#121f2e" stroke="#121f2e"></path><path d="M1314.2 1324.3L1394.2 1566L1559.8 1351.3Z" fill="#143346" stroke="#143346"></path><path d="M1559.8 1351.3L1610.8 1566L1726.3 1341.3Z" fill="#133e52" stroke="#133e52"></path><path d="M826.2 1303.3L1042.7 1387.3L1055.7 1232.5Z" fill="#132434" stroke="#132434"></path><path d="M826.2 1303.3L1055.7 1232.5L867.2 1104.5Z" fill="#101a28" stroke="#101a28"></path><path d="M2161.4 783L2233.4 581.3L1999.8 551.3Z" fill="#132434" stroke="#132434"></path><path d="M734.6 0L685.6 216.8L924.2 148.8Z" fill="#142e40" stroke="#142e40"></path><path d="M1726.3 1341.3L1926.8 1309.3L1799.3 1107.5Z" fill="#133e52" stroke="#133e52"></path><path d="M2183.4 1222.5L2283.4 1029.8L1968.8 911.8Z" fill="#133e52" stroke="#133e52"></path><path d="M600.6 1004.8L731.6 1163.5L845.2 977.8Z" fill="#101a28" stroke="#101a28"></path><path d="M731.6 1163.5L826.2 1303.3L867.2 1104.5Z" fill="#142e40" stroke="#142e40"></path><path d="M382.1 930.8L600.6 1004.8L635.6 834Z" fill="#101a28" stroke="#101a28"></path><path d="M635.6 834L600.6 1004.8L845.2 977.8Z" fill="#121f2e" stroke="#121f2e"></path><path d="M731.6 1163.5L696.6 1346.3L826.2 1303.3Z" fill="#14394c" stroke="#14394c"></path><path d="M2221.4 218.8L2035.8 0L1978.8 144.8Z" fill="#143346" stroke="#143346"></path><path d="M1978.8 144.8L2035.8 0L1741.3 0Z" fill="#14293a" stroke="#14293a"></path><path d="M2221.4 218.8L1961.8 387.5L2171.4 426.5Z" fill="#121f2e" stroke="#121f2e"></path><path d="M1042.7 1566L1314.2 1324.3L1042.7 1387.3Z" fill="#14394c" stroke="#14394c"></path><path d="M1042.7 1566L1394.2 1566L1314.2 1324.3Z" fill="#14394c" stroke="#14394c"></path><path d="M1726.3 1341.3L1928.8 1566L1926.8 1309.3Z" fill="#14293a" stroke="#14293a"></path><path d="M2484.9 320.5L2221.4 218.8L2171.4 426.5Z" fill="#142e40" stroke="#142e40"></path><path d="M958.2 0L734.6 0L924.2 148.8Z" fill="#0e1522" stroke="#0e1522"></path><path d="M1394.2 1566L1610.8 1566L1559.8 1351.3Z" fill="#14293a" stroke="#14293a"></path><path d="M2183.4 1222.5L1968.8 911.8L1954.8 1211.5Z" fill="#050816" stroke="#050816"></path><path d="M2489.9 755L2452.9 570.3L2233.4 581.3Z" fill="#0e1522" stroke="#0e1522"></path><path d="M2233.4 581.3L2452.9 570.3L2171.4 426.5Z" fill="#132434" stroke="#132434"></path><path d="M2183.4 1222.5L1954.8 1211.5L1926.8 1309.3Z" fill="#14293a" stroke="#14293a"></path><path d="M2179.4 1421.3L2183.4 1222.5L1926.8 1309.3Z" fill="#133e52" stroke="#133e52"></path><path d="M456.1 140.8L457.1 454.5L649.6 423.5Z" fill="#121f2e" stroke="#121f2e"></path><path d="M649.6 423.5L457.1 454.5L721.6 634.3Z" fill="#14293a" stroke="#14293a"></path><path d="M456.1 140.8L649.6 423.5L685.6 216.8Z" fill="#143346" stroke="#143346"></path><path d="M1610.8 1566L1735.3 1566L1726.3 1341.3Z" fill="#0b101c" stroke="#0b101c"></path><path d="M817.2 1566L1042.7 1566L1042.7 1387.3Z" fill="#121f2e" stroke="#121f2e"></path><path d="M396.1 569.3L422.1 736L721.6 634.3Z" fill="#0b101c" stroke="#0b101c"></path><path d="M502.1 1346.3L696.6 1346.3L731.6 1163.5Z" fill="#133e52" stroke="#133e52"></path><path d="M826.2 1303.3L817.2 1566L1042.7 1387.3Z" fill="#133e52" stroke="#133e52"></path><path d="M401.1 1187.5L731.6 1163.5L600.6 1004.8Z" fill="#14293a" stroke="#14293a"></path><path d="M457.1 454.5L396.1 569.3L721.6 634.3Z" fill="#142e40" stroke="#142e40"></path><path d="M2489.9 755L2233.4 581.3L2161.4 783Z" fill="#14293a" stroke="#14293a"></path><path d="M1735.3 1566L1928.8 1566L1726.3 1341.3Z" fill="#133e52" stroke="#133e52"></path><path d="M265.5 740L382.1 930.8L422.1 736Z" fill="#14394c" stroke="#14394c"></path><path d="M422.1 736L382.1 930.8L635.6 834Z" fill="#121f2e" stroke="#121f2e"></path><path d="M2409.9 128.8L2253.4 0L2221.4 218.8Z" fill="#143346" stroke="#143346"></path><path d="M2221.4 218.8L2253.4 0L2035.8 0Z" fill="#14394c" stroke="#14394c"></path><path d="M734.6 0L456.1 140.8L685.6 216.8Z" fill="#132434" stroke="#132434"></path><path d="M195.5 324.5L166.5 559.3L396.1 569.3Z" fill="#143346" stroke="#143346"></path><path d="M2183.4 1222.5L2386.9 1102.5L2283.4 1029.8Z" fill="#121f2e" stroke="#121f2e"></path><path d="M2445.9 990.8L2489.9 755L2161.4 783Z" fill="#0b101c" stroke="#0b101c"></path><path d="M2436.9 1310.3L2386.9 1102.5L2183.4 1222.5Z" fill="#14293a" stroke="#14293a"></path><path d="M2445.9 990.8L2161.4 783L2283.4 1029.8Z" fill="#050816" stroke="#050816"></path><path d="M717.6 1566L817.2 1566L696.6 1346.3Z" fill="#0e1522" stroke="#0e1522"></path><path d="M696.6 1346.3L817.2 1566L826.2 1303.3Z" fill="#14293a" stroke="#14293a"></path><path d="M1928.8 1566L2179.4 1421.3L1926.8 1309.3Z" fill="#050816" stroke="#050816"></path><path d="M2386.9 1102.5L2445.9 990.8L2283.4 1029.8Z" fill="#0b101c" stroke="#0b101c"></path><path d="M2688.5 316.5L2484.9 320.5L2452.9 570.3Z" fill="#0b101c" stroke="#0b101c"></path><path d="M2452.9 570.3L2484.9 320.5L2171.4 426.5Z" fill="#142e40" stroke="#142e40"></path><path d="M2484.9 320.5L2409.9 128.8L2221.4 218.8Z" fill="#0b101c" stroke="#0b101c"></path><path d="M382.1 930.8L401.1 1187.5L600.6 1004.8Z" fill="#050816" stroke="#050816"></path><path d="M401.1 1187.5L502.1 1346.3L731.6 1163.5Z" fill="#0b101c" stroke="#0b101c"></path><path d="M396.1 569.3L265.5 740L422.1 736Z" fill="#14394c" stroke="#14394c"></path><path d="M382.1 930.8L256.5 1052.8L401.1 1187.5Z" fill="#0b101c" stroke="#0b101c"></path><path d="M166.5 559.3L265.5 740L396.1 569.3Z" fill="#050816" stroke="#050816"></path><path d="M502.1 1346.3L717.6 1566L696.6 1346.3Z" fill="#14293a" stroke="#14293a"></path><path d="M734.6 0L443.1 0L456.1 140.8Z" fill="#101a28" stroke="#101a28"></path><path d="M195.5 324.5L396.1 569.3L457.1 454.5Z" fill="#14293a" stroke="#14293a"></path><path d="M2626.5 756L2612.5 649.3L2489.9 755Z" fill="#121f2e" stroke="#121f2e"></path><path d="M2489.9 755L2612.5 649.3L2452.9 570.3Z" fill="#121f2e" stroke="#121f2e"></path><path d="M265.5 740L256.5 1052.8L382.1 930.8Z" fill="#050816" stroke="#050816"></path><path d="M401.1 1187.5L286.5 1331.3L502.1 1346.3Z" fill="#121f2e" stroke="#121f2e"></path><path d="M2598.5 940.8L2489.9 755L2445.9 990.8Z" fill="#14394c" stroke="#14394c"></path><path d="M2598.5 940.8L2626.5 756L2489.9 755Z" fill="#0e1522" stroke="#0e1522"></path><path d="M2598.5 940.8L2445.9 990.8L2595.5 1193.5Z" fill="#142e40" stroke="#142e40"></path><path d="M2378.9 1566L2436.9 1310.3L2179.4 1421.3Z" fill="#050816" stroke="#050816"></path><path d="M2179.4 1421.3L2436.9 1310.3L2183.4 1222.5Z" fill="#0b101c" stroke="#0b101c"></path><path d="M2595.5 1193.5L2445.9 990.8L2386.9 1102.5Z" fill="#133e52" stroke="#133e52"></path><path d="M1928.8 1566L2223.4 1566L2179.4 1421.3Z" fill="#14394c" stroke="#14394c"></path><path d="M195.5 324.5L457.1 454.5L456.1 140.8Z" fill="#101a28" stroke="#101a28"></path><path d="M265.5 740L0 920.8L256.5 1052.8Z" fill="#121f2e" stroke="#121f2e"></path><path d="M244.5 164.8L195.5 324.5L456.1 140.8Z" fill="#121f2e" stroke="#121f2e"></path><path d="M443.1 0L244.5 164.8L456.1 140.8Z" fill="#14293a" stroke="#14293a"></path><path d="M2700.5 203.8L2508.9 0L2409.9 128.8Z" fill="#143346" stroke="#143346"></path><path d="M2409.9 128.8L2508.9 0L2253.4 0Z" fill="#0e1522" stroke="#0e1522"></path><path d="M2700.5 203.8L2409.9 128.8L2484.9 320.5Z" fill="#143346" stroke="#143346"></path><path d="M2699.5 1314.3L2595.5 1193.5L2436.9 1310.3Z" fill="#133e52" stroke="#133e52"></path><path d="M2436.9 1310.3L2595.5 1193.5L2386.9 1102.5Z" fill="#14394c" stroke="#14394c"></path><path d="M2880 756L2880 620.3L2626.5 756Z" fill="#14293a" stroke="#14293a"></path><path d="M159.5 1238.5L286.5 1331.3L401.1 1187.5Z" fill="#14394c" stroke="#14394c"></path><path d="M502.1 1346.3L377.1 1566L717.6 1566Z" fill="#0b101c" stroke="#0b101c"></path><path d="M159.5 1238.5L401.1 1187.5L256.5 1052.8Z" fill="#14394c" stroke="#14394c"></path><path d="M2880 620.3L2612.5 649.3L2626.5 756Z" fill="#0e1522" stroke="#0e1522"></path><path d="M2880 620.3L2688.5 316.5L2612.5 649.3Z" fill="#142e40" stroke="#142e40"></path><path d="M2612.5 649.3L2688.5 316.5L2452.9 570.3Z" fill="#0e1522" stroke="#0e1522"></path><path d="M2223.4 1566L2378.9 1566L2179.4 1421.3Z" fill="#121f2e" stroke="#121f2e"></path><path d="M2880 222.8L2700.5 203.8L2688.5 316.5Z" fill="#133e52" stroke="#133e52"></path><path d="M2688.5 316.5L2700.5 203.8L2484.9 320.5Z" fill="#121f2e" stroke="#121f2e"></path><path d="M2700.5 203.8L2614.5 0L2508.9 0Z" fill="#050816" stroke="#050816"></path><path d="M443.1 0L196.5 0L244.5 164.8Z" fill="#132434" stroke="#132434"></path><path d="M0 210.8L0 425.5L195.5 324.5Z" fill="#142e40" stroke="#142e40"></path><path d="M0 512.3L0 761L166.5 559.3Z" fill="#0b101c" stroke="#0b101c"></path><path d="M286.5 1331.3L377.1 1566L502.1 1346.3Z" fill="#133e52" stroke="#133e52"></path><path d="M0 1234.5L159.5 1238.5L256.5 1052.8Z" fill="#143346" stroke="#143346"></path><path d="M286.5 1331.3L280.5 1566L377.1 1566Z" fill="#0b101c" stroke="#0b101c"></path><path d="M166.5 559.3L0 761L265.5 740Z" fill="#050816" stroke="#050816"></path><path d="M0 512.3L166.5 559.3L0 425.5Z" fill="#132434" stroke="#132434"></path><path d="M0 425.5L166.5 559.3L195.5 324.5Z" fill="#133e52" stroke="#133e52"></path><path d="M0 210.8L195.5 324.5L244.5 164.8Z" fill="#143346" stroke="#143346"></path><path d="M0 761L0 920.8L265.5 740Z" fill="#142e40" stroke="#142e40"></path><path d="M0 1417.3L286.5 1331.3L159.5 1238.5Z" fill="#143346" stroke="#143346"></path><path d="M0 1417.3L280.5 1566L286.5 1331.3Z" fill="#14394c" stroke="#14394c"></path><path d="M2652.5 1566L2699.5 1314.3L2436.9 1310.3Z" fill="#132434" stroke="#132434"></path><path d="M2595.5 1193.5L2880 1029.8L2598.5 940.8Z" fill="#121f2e" stroke="#121f2e"></path><path d="M196.5 0L0 210.8L244.5 164.8Z" fill="#142e40" stroke="#142e40"></path><path d="M2880 756L2626.5 756L2598.5 940.8Z" fill="#14394c" stroke="#14394c"></path><path d="M2700.5 203.8L2880 0L2614.5 0Z" fill="#0e1522" stroke="#0e1522"></path><path d="M2880 1029.8L2880 756L2598.5 940.8Z" fill="#0e1522" stroke="#0e1522"></path><path d="M2880 620.3L2880 321.5L2688.5 316.5Z" fill="#121f2e" stroke="#121f2e"></path><path d="M2880 1146.5L2880 1029.8L2595.5 1193.5Z" fill="#0e1522" stroke="#0e1522"></path><path d="M0 920.8L0 1234.5L256.5 1052.8Z" fill="#101a28" stroke="#101a28"></path><path d="M2880 321.5L2880 222.8L2688.5 316.5Z" fill="#0e1522" stroke="#0e1522"></path><path d="M2378.9 1566L2652.5 1566L2436.9 1310.3Z" fill="#101a28" stroke="#101a28"></path><path d="M2699.5 1314.3L2880 1146.5L2595.5 1193.5Z" fill="#0e1522" stroke="#0e1522"></path><path d="M196.5 0L0 0L0 210.8Z" fill="#0e1522" stroke="#0e1522"></path><path d="M2880 1343.3L2880 1146.5L2699.5 1314.3Z" fill="#143346" stroke="#143346"></path><path d="M0 1234.5L0 1417.3L159.5 1238.5Z" fill="#142e40" stroke="#142e40"></path><path d="M2880 222.8L2880 0L2700.5 203.8Z" fill="#14293a" stroke="#14293a"></path><path d="M2880 1566L2880 1343.3L2699.5 1314.3Z" fill="#133e52" stroke="#133e52"></path><path d="M0 1417.3L0 1566L280.5 1566Z" fill="#14293a" stroke="#14293a"></path><path d="M2652.5 1566L2880 1566L2699.5 1314.3Z" fill="#133e52" stroke="#133e52"></path></g>
<g id="background2" stroke-width="1" stroke-linejoin="bevel" style="visibility: hidden"><path d="M1490.8 805L1333.2 772L1268.2 976.8Z" fill="#101a28" stroke="#101a28"></path><path d="M1268.2 976.8L1516.8 1041.8L1490.8 805Z" fill="#143346" stroke="#143346"></path><path d="M1054.7 808L1146.7 999.8L1268.2 976.8Z" fill="#133e52" stroke="#133e52"></path><path d="M1268.2 976.8L1392.2 1164.5L1516.8 1041.8Z" fill="#0e1522" stroke="#0e1522"></path><path d="M1114.7 1220.5L1392.2 1164.5L1268.2 976.8Z" fill="#14293a" stroke="#14293a"></path><path d="M1392.2 1164.5L1514.8 1138.5L1516.8 1041.8Z" fill="#0e1522" stroke="#0e1522"></path><path d="M1509.8 516.3L1280.2 575.3L1333.2 772Z" fill="#101a28" stroke="#101a28"></path><path d="M1333.2 772L1054.7 808L1268.2 976.8Z" fill="#0e1522" stroke="#0e1522"></path><path d="M1280.2 575.3L1054.7 808L1333.2 772Z" fill="#121f2e" stroke="#121f2e"></path><path d="M1514.8 1138.5L1752.3 1008.8L1516.8 1041.8Z" fill="#0e1522" stroke="#0e1522"></path><path d="M1516.8 1041.8L1752.3 1008.8L1490.8 805Z" fill="#14293a" stroke="#14293a"></path><path d="M1490.8 805L1509.8 516.3L1333.2 772Z" fill="#132434" stroke="#132434"></path><path d="M1777.3 752L1509.8 516.3L1490.8 805Z" fill="#0e1522" stroke="#0e1522"></path><path d="M1752.3 1008.8L1777.3 752L1490.8 805Z" fill="#132434" stroke="#132434"></path><path d="M883.2 990.8L1114.7 1220.5L1146.7 999.8Z" fill="#14293a" stroke="#14293a"></path><path d="M1146.7 999.8L1114.7 1220.5L1268.2 976.8Z" fill="#142e40" stroke="#142e40"></path><path d="M1160.7 413.5L1106.7 562.3L1280.2 575.3Z" fill="#14394c" stroke="#14394c"></path><path d="M1280.2 575.3L1106.7 562.3L1054.7 808Z" fill="#0e1522" stroke="#0e1522"></path><path d="M1994.8 721L1807.3 661.3L1777.3 752Z" fill="#132434" stroke="#132434"></path><path d="M1777.3 752L1807.3 661.3L1509.8 516.3Z" fill="#133e52" stroke="#133e52"></path><path d="M1495.8 378.5L1308.2 406.5L1509.8 516.3Z" fill="#101a28" stroke="#101a28"></path><path d="M1509.8 516.3L1308.2 406.5L1280.2 575.3Z" fill="#143346" stroke="#143346"></path><path d="M1178.7 1367.3L1303.2 1398.3L1392.2 1164.5Z" fill="#0b101c" stroke="#0b101c"></path><path d="M1392.2 1164.5L1502.8 1412.3L1514.8 1138.5Z" fill="#121f2e" stroke="#121f2e"></path><path d="M1514.8 1138.5L1794.3 1234.5L1752.3 1008.8Z" fill="#121f2e" stroke="#121f2e"></path><path d="M1114.7 1220.5L1178.7 1367.3L1392.2 1164.5Z" fill="#14293a" stroke="#14293a"></path><path d="M813.2 800L883.2 990.8L1054.7 808Z" fill="#050816" stroke="#050816"></path><path d="M1054.7 808L883.2 990.8L1146.7 999.8Z" fill="#0e1522" stroke="#0e1522"></path><path d="M1114.7 1220.5L880.2 1415.3L1178.7 1367.3Z" fill="#143346" stroke="#143346"></path><path d="M1303.2 1398.3L1502.8 1412.3L1392.2 1164.5Z" fill="#142e40" stroke="#142e40"></path><path d="M1502.8 1412.3L1794.3 1234.5L1514.8 1138.5Z" fill="#0b101c" stroke="#0b101c"></path><path d="M1752.3 1008.8L1927.8 948.8L1777.3 752Z" fill="#101a28" stroke="#101a28"></path><path d="M1745.3 326.5L1495.8 378.5L1509.8 516.3Z" fill="#14293a" stroke="#14293a"></path><path d="M1175.7 154.8L1160.7 413.5L1308.2 406.5Z" fill="#143346" stroke="#143346"></path><path d="M1308.2 406.5L1160.7 413.5L1280.2 575.3Z" fill="#143346" stroke="#143346"></path><path d="M827.2 591.3L813.2 800L1054.7 808Z" fill="#0b101c" stroke="#0b101c"></path><path d="M1949.8 1207.5L1927.8 948.8L1752.3 1008.8Z" fill="#132434" stroke="#132434"></path><path d="M827.2 591.3L1054.7 808L1106.7 562.3Z" fill="#121f2e" stroke="#121f2e"></path><path d="M641.6 936.8L837.2 1099.5L883.2 990.8Z" fill="#101a28" stroke="#101a28"></path><path d="M883.2 990.8L837.2 1099.5L1114.7 1220.5Z" fill="#050816" stroke="#050816"></path><path d="M1502.8 1412.3L1821.3 1356.3L1794.3 1234.5Z" fill="#14394c" stroke="#14394c"></path><path d="M1794.3 1234.5L1949.8 1207.5L1752.3 1008.8Z" fill="#133e52" stroke="#133e52"></path><path d="M2207.4 800L1994.8 721L1927.8 948.8Z" fill="#050816" stroke="#050816"></path><path d="M1927.8 948.8L1994.8 721L1777.3 752Z" fill="#14394c" stroke="#14394c"></path><path d="M1807.3 661.3L1745.3 326.5L1509.8 516.3Z" fill="#050816" stroke="#050816"></path><path d="M1821.3 1356.3L1949.8 1207.5L1794.3 1234.5Z" fill="#14394c" stroke="#14394c"></path><path d="M861.2 395.5L827.2 591.3L1106.7 562.3Z" fill="#121f2e" stroke="#121f2e"></path><path d="M1178.7 1367.3L1269.2 1566L1303.2 1398.3Z" fill="#133e52" stroke="#133e52"></path><path d="M1303.2 1398.3L1269.2 1566L1502.8 1412.3Z" fill="#142e40" stroke="#142e40"></path><path d="M1502.8 1412.3L1623.8 1566L1821.3 1356.3Z" fill="#14394c" stroke="#14394c"></path><path d="M1152.7 1566L1269.2 1566L1178.7 1367.3Z" fill="#121f2e" stroke="#121f2e"></path><path d="M1979.8 442.5L1745.3 326.5L1807.3 661.3Z" fill="#0e1522" stroke="#0e1522"></path><path d="M1495.8 378.5L1393.2 167.8L1308.2 406.5Z" fill="#14394c" stroke="#14394c"></path><path d="M827.2 591.3L725.6 732L813.2 800Z" fill="#0b101c" stroke="#0b101c"></path><path d="M641.6 936.8L709.6 1187.5L837.2 1099.5Z" fill="#14394c" stroke="#14394c"></path><path d="M880.2 1415.3L1152.7 1566L1178.7 1367.3Z" fill="#0b101c" stroke="#0b101c"></path><path d="M1269.2 1566L1623.8 1566L1502.8 1412.3Z" fill="#133e52" stroke="#133e52"></path><path d="M1745.3 326.5L1476.8 191.8L1495.8 378.5Z" fill="#133e52" stroke="#133e52"></path><path d="M1160.7 413.5L861.2 395.5L1106.7 562.3Z" fill="#14394c" stroke="#14394c"></path><path d="M709.6 1187.5L880.2 1415.3L837.2 1099.5Z" fill="#14394c" stroke="#14394c"></path><path d="M837.2 1099.5L880.2 1415.3L1114.7 1220.5Z" fill="#132434" stroke="#132434"></path><path d="M920.2 193.8L861.2 395.5L1160.7 413.5Z" fill="#121f2e" stroke="#121f2e"></path><path d="M827.2 591.3L688.6 584.3L725.6 732Z" fill="#143346" stroke="#143346"></path><path d="M1476.8 191.8L1393.2 167.8L1495.8 378.5Z" fill="#14293a" stroke="#14293a"></path><path d="M641.6 936.8L883.2 990.8L813.2 800Z" fill="#0b101c" stroke="#0b101c"></path><path d="M725.6 732L641.6 936.8L813.2 800Z" fill="#14293a" stroke="#14293a"></path><path d="M421.1 785L641.6 936.8L725.6 732Z" fill="#142e40" stroke="#142e40"></path><path d="M2054.8 514.3L1979.8 442.5L1807.3 661.3Z" fill="#0b101c" stroke="#0b101c"></path><path d="M1745.3 326.5L1781.3 200.8L1476.8 191.8Z" fill="#133e52" stroke="#133e52"></path><path d="M861.2 395.5L688.6 584.3L827.2 591.3Z" fill="#050816" stroke="#050816"></path><path d="M1994.8 721L2054.8 514.3L1807.3 661.3Z" fill="#14394c" stroke="#14394c"></path><path d="M2205.4 612.3L2054.8 514.3L1994.8 721Z" fill="#121f2e" stroke="#121f2e"></path><path d="M1821.3 1356.3L2067.8 1372.3L1949.8 1207.5Z" fill="#132434" stroke="#132434"></path><path d="M1623.8 1566L1791.3 1566L1821.3 1356.3Z" fill="#050816" stroke="#050816"></path><path d="M1393.2 167.8L1175.7 154.8L1308.2 406.5Z" fill="#0b101c" stroke="#0b101c"></path><path d="M2024.8 144.8L1781.3 200.8L1979.8 442.5Z" fill="#132434" stroke="#132434"></path><path d="M1979.8 442.5L1781.3 200.8L1745.3 326.5Z" fill="#132434" stroke="#132434"></path><path d="M1613.8 0L1271.2 0L1393.2 167.8Z" fill="#0b101c" stroke="#0b101c"></path><path d="M2256.4 1002.8L1927.8 948.8L1949.8 1207.5Z" fill="#14293a" stroke="#14293a"></path><path d="M2256.4 1002.8L2207.4 800L1927.8 948.8Z" fill="#143346" stroke="#143346"></path><path d="M1953.8 1566L2067.8 1372.3L1821.3 1356.3Z" fill="#050816" stroke="#050816"></path><path d="M681.6 1566L876.2 1566L880.2 1415.3Z" fill="#101a28" stroke="#101a28"></path><path d="M880.2 1415.3L876.2 1566L1152.7 1566Z" fill="#132434" stroke="#132434"></path><path d="M1175.7 154.8L920.2 193.8L1160.7 413.5Z" fill="#143346" stroke="#143346"></path><path d="M861.2 395.5L612.6 382.5L688.6 584.3Z" fill="#14293a" stroke="#14293a"></path><path d="M709.6 1187.5L639.6 1324.3L880.2 1415.3Z" fill="#133e52" stroke="#133e52"></path><path d="M486.1 1115.5L639.6 1324.3L709.6 1187.5Z" fill="#0b101c" stroke="#0b101c"></path><path d="M2207.4 800L2205.4 612.3L1994.8 721Z" fill="#14293a" stroke="#14293a"></path><path d="M2054.8 514.3L2170.4 453.5L1979.8 442.5Z" fill="#142e40" stroke="#142e40"></path><path d="M1791.3 1566L1953.8 1566L1821.3 1356.3Z" fill="#143346" stroke="#143346"></path><path d="M2281.4 1104.5L2256.4 1002.8L1949.8 1207.5Z" fill="#14293a" stroke="#14293a"></path><path d="M2455.9 732L2405.9 566.3L2205.4 612.3Z" fill="#101a28" stroke="#101a28"></path><path d="M421.1 785L506.1 1038.8L641.6 936.8Z" fill="#101a28" stroke="#101a28"></path><path d="M641.6 936.8L506.1 1038.8L709.6 1187.5Z" fill="#14394c" stroke="#14394c"></path><path d="M2205.4 612.3L2170.4 453.5L2054.8 514.3Z" fill="#142e40" stroke="#142e40"></path><path d="M1393.2 167.8L1271.2 0L1175.7 154.8Z" fill="#0b101c" stroke="#0b101c"></path><path d="M1175.7 154.8L1115.7 0L920.2 193.8Z" fill="#133e52" stroke="#133e52"></path><path d="M1613.8 0L1393.2 167.8L1476.8 191.8Z" fill="#133e52" stroke="#133e52"></path><path d="M2067.8 1372.3L2281.4 1104.5L1949.8 1207.5Z" fill="#0b101c" stroke="#0b101c"></path><path d="M2256.4 1002.8L2420.9 968.8L2207.4 800Z" fill="#132434" stroke="#132434"></path><path d="M2193.4 1414.3L2281.4 1104.5L2067.8 1372.3Z" fill="#142e40" stroke="#142e40"></path><path d="M506.1 1038.8L486.1 1115.5L709.6 1187.5Z" fill="#101a28" stroke="#101a28"></path><path d="M1781.3 0L1613.8 0L1781.3 200.8Z" fill="#14293a" stroke="#14293a"></path><path d="M1781.3 200.8L1613.8 0L1476.8 191.8Z" fill="#133e52" stroke="#133e52"></path><path d="M620.6 256.8L612.6 382.5L861.2 395.5Z" fill="#14293a" stroke="#14293a"></path><path d="M688.6 584.3L421.1 785L725.6 732Z" fill="#14394c" stroke="#14394c"></path><path d="M506.1 1038.8L264.5 933.8L486.1 1115.5Z" fill="#132434" stroke="#132434"></path><path d="M1271.2 0L1115.7 0L1175.7 154.8Z" fill="#14293a" stroke="#14293a"></path><path d="M620.6 256.8L510.1 419.5L612.6 382.5Z" fill="#142e40" stroke="#142e40"></path><path d="M2184.4 1566L2193.4 1414.3L2067.8 1372.3Z" fill="#101a28" stroke="#101a28"></path><path d="M440.1 1566L681.6 1566L639.6 1324.3Z" fill="#14394c" stroke="#14394c"></path><path d="M639.6 1324.3L681.6 1566L880.2 1415.3Z" fill="#0e1522" stroke="#0e1522"></path><path d="M405.1 604.3L421.1 785L688.6 584.3Z" fill="#143346" stroke="#143346"></path><path d="M1946.8 0L1781.3 0L1781.3 200.8Z" fill="#132434" stroke="#132434"></path><path d="M2170.4 453.5L2024.8 144.8L1979.8 442.5Z" fill="#132434" stroke="#132434"></path><path d="M620.6 256.8L861.2 395.5L920.2 193.8Z" fill="#14293a" stroke="#14293a"></path><path d="M612.6 382.5L510.1 419.5L688.6 584.3Z" fill="#0e1522" stroke="#0e1522"></path><path d="M694.6 0L620.6 256.8L920.2 193.8Z" fill="#0b101c" stroke="#0b101c"></path><path d="M1115.7 0L904.2 0L920.2 193.8Z" fill="#14293a" stroke="#14293a"></path><path d="M2193.4 1414.3L2381.9 1152.5L2281.4 1104.5Z" fill="#14293a" stroke="#14293a"></path><path d="M2281.4 1104.5L2420.9 968.8L2256.4 1002.8Z" fill="#050816" stroke="#050816"></path><path d="M2205.4 612.3L2405.9 566.3L2170.4 453.5Z" fill="#0e1522" stroke="#0e1522"></path><path d="M510.1 419.5L405.1 604.3L688.6 584.3Z" fill="#133e52" stroke="#133e52"></path><path d="M2381.9 1152.5L2420.9 968.8L2281.4 1104.5Z" fill="#142e40" stroke="#142e40"></path><path d="M2170.4 453.5L2267.4 256.8L2024.8 144.8Z" fill="#142e40" stroke="#142e40"></path><path d="M1953.8 1566L2184.4 1566L2067.8 1372.3Z" fill="#143346" stroke="#143346"></path><path d="M2193.4 1414.3L2421.9 1416.3L2381.9 1152.5Z" fill="#101a28" stroke="#101a28"></path><path d="M2024.8 144.8L1946.8 0L1781.3 200.8Z" fill="#121f2e" stroke="#121f2e"></path><path d="M2455.9 732L2205.4 612.3L2207.4 800Z" fill="#0b101c" stroke="#0b101c"></path><path d="M2024.8 144.8L2149.4 0L1946.8 0Z" fill="#121f2e" stroke="#121f2e"></path><path d="M228.5 1204.5L391.1 1308.3L486.1 1115.5Z" fill="#0b101c" stroke="#0b101c"></path><path d="M486.1 1115.5L391.1 1308.3L639.6 1324.3Z" fill="#0b101c" stroke="#0b101c"></path><path d="M264.5 933.8L506.1 1038.8L421.1 785Z" fill="#0e1522" stroke="#0e1522"></path><path d="M2420.9 968.8L2455.9 732L2207.4 800Z" fill="#133e52" stroke="#133e52"></path><path d="M2425.9 434.5L2267.4 256.8L2170.4 453.5Z" fill="#101a28" stroke="#101a28"></path><path d="M258.5 817L264.5 933.8L421.1 785Z" fill="#0e1522" stroke="#0e1522"></path><path d="M181.5 626.3L258.5 817L405.1 604.3Z" fill="#0b101c" stroke="#0b101c"></path><path d="M405.1 604.3L258.5 817L421.1 785Z" fill="#142e40" stroke="#142e40"></path><path d="M620.6 256.8L439.1 233.8L510.1 419.5Z" fill="#0b101c" stroke="#0b101c"></path><path d="M240.5 362.5L181.5 626.3L405.1 604.3Z" fill="#101a28" stroke="#101a28"></path><path d="M904.2 0L694.6 0L920.2 193.8Z" fill="#14293a" stroke="#14293a"></path><path d="M2597.5 460.5L2425.9 434.5L2405.9 566.3Z" fill="#14394c" stroke="#14394c"></path><path d="M2405.9 566.3L2425.9 434.5L2170.4 453.5Z" fill="#142e40" stroke="#142e40"></path><path d="M2381.9 1152.5L2652.5 1012.8L2420.9 968.8Z" fill="#142e40" stroke="#142e40"></path><path d="M2420.9 968.8L2652.5 741L2455.9 732Z" fill="#0e1522" stroke="#0e1522"></path><path d="M2184.4 1566L2421.9 1416.3L2193.4 1414.3Z" fill="#0b101c" stroke="#0b101c"></path><path d="M391.1 1308.3L440.1 1566L639.6 1324.3Z" fill="#050816" stroke="#050816"></path><path d="M175.5 1390.3L440.1 1566L391.1 1308.3Z" fill="#132434" stroke="#132434"></path><path d="M694.6 0L439.1 233.8L620.6 256.8Z" fill="#0e1522" stroke="#0e1522"></path><path d="M2380.9 0L2149.4 0L2267.4 256.8Z" fill="#133e52" stroke="#133e52"></path><path d="M2267.4 256.8L2149.4 0L2024.8 144.8Z" fill="#0b101c" stroke="#0b101c"></path><path d="M0 1019.8L228.5 1204.5L264.5 933.8Z" fill="#101a28" stroke="#101a28"></path><path d="M264.5 933.8L228.5 1204.5L486.1 1115.5Z" fill="#143346" stroke="#143346"></path><path d="M240.5 362.5L405.1 604.3L510.1 419.5Z" fill="#050816" stroke="#050816"></path><path d="M258.5 817L0 838L264.5 933.8Z" fill="#121f2e" stroke="#121f2e"></path><path d="M2425.9 434.5L2477.9 268.8L2267.4 256.8Z" fill="#0b101c" stroke="#0b101c"></path><path d="M2597.5 460.5L2477.9 268.8L2425.9 434.5Z" fill="#142e40" stroke="#142e40"></path><path d="M439.1 233.8L240.5 362.5L510.1 419.5Z" fill="#143346" stroke="#143346"></path><path d="M213.5 220.8L240.5 362.5L439.1 233.8Z" fill="#0b101c" stroke="#0b101c"></path><path d="M2664.5 1152.5L2652.5 1012.8L2381.9 1152.5Z" fill="#143346" stroke="#143346"></path><path d="M2655.5 563.3L2597.5 460.5L2405.9 566.3Z" fill="#132434" stroke="#132434"></path><path d="M2652.5 1012.8L2652.5 741L2420.9 968.8Z" fill="#0e1522" stroke="#0e1522"></path><path d="M2184.4 1566L2486.9 1566L2421.9 1416.3Z" fill="#101a28" stroke="#101a28"></path><path d="M2421.9 1416.3L2664.5 1152.5L2381.9 1152.5Z" fill="#14293a" stroke="#14293a"></path><path d="M2655.5 563.3L2405.9 566.3L2455.9 732Z" fill="#101a28" stroke="#101a28"></path><path d="M2726.5 1360.3L2664.5 1152.5L2421.9 1416.3Z" fill="#132434" stroke="#132434"></path><path d="M2652.5 1012.8L2880 758L2652.5 741Z" fill="#121f2e" stroke="#121f2e"></path><path d="M0 1214.5L175.5 1390.3L228.5 1204.5Z" fill="#143346" stroke="#143346"></path><path d="M228.5 1204.5L175.5 1390.3L391.1 1308.3Z" fill="#133e52" stroke="#133e52"></path><path d="M2880 758L2655.5 563.3L2652.5 741Z" fill="#133e52" stroke="#133e52"></path><path d="M2652.5 741L2655.5 563.3L2455.9 732Z" fill="#0e1522" stroke="#0e1522"></path><path d="M694.6 0L399.1 0L439.1 233.8Z" fill="#132434" stroke="#132434"></path><path d="M2665.5 0L2380.9 0L2477.9 268.8Z" fill="#133e52" stroke="#133e52"></path><path d="M2477.9 268.8L2380.9 0L2267.4 256.8Z" fill="#050816" stroke="#050816"></path><path d="M2669.5 230.8L2477.9 268.8L2597.5 460.5Z" fill="#14293a" stroke="#14293a"></path><path d="M399.1 0L213.5 220.8L439.1 233.8Z" fill="#133e52" stroke="#133e52"></path><path d="M0 434.5L0 547.3L181.5 626.3Z" fill="#050816" stroke="#050816"></path><path d="M0 547.3L0 838L181.5 626.3Z" fill="#14394c" stroke="#14394c"></path><path d="M181.5 626.3L0 838L258.5 817Z" fill="#0b101c" stroke="#0b101c"></path><path d="M0 838L0 1019.8L264.5 933.8Z" fill="#101a28" stroke="#101a28"></path><path d="M175.5 1390.3L162.5 1566L440.1 1566Z" fill="#101a28" stroke="#101a28"></path><path d="M0 1566L162.5 1566L175.5 1390.3Z" fill="#132434" stroke="#132434"></path><path d="M2486.9 1566L2726.5 1360.3L2421.9 1416.3Z" fill="#14394c" stroke="#14394c"></path><path d="M2880 1120.5L2880 1015.8L2652.5 1012.8Z" fill="#142e40" stroke="#142e40"></path><path d="M0 1019.8L0 1214.5L228.5 1204.5Z" fill="#143346" stroke="#143346"></path><path d="M0 434.5L181.5 626.3L240.5 362.5Z" fill="#121f2e" stroke="#121f2e"></path><path d="M2880 333.5L2669.5 230.8L2597.5 460.5Z" fill="#143346" stroke="#143346"></path><path d="M2880 523.3L2597.5 460.5L2655.5 563.3Z" fill="#0b101c" stroke="#0b101c"></path><path d="M0 1214.5L0 1350.3L175.5 1390.3Z" fill="#14394c" stroke="#14394c"></path><path d="M399.1 0L239.5 0L213.5 220.8Z" fill="#0b101c" stroke="#0b101c"></path><path d="M0 268.8L0 434.5L240.5 362.5Z" fill="#121f2e" stroke="#121f2e"></path><path d="M0 268.8L240.5 362.5L213.5 220.8Z" fill="#101a28" stroke="#101a28"></path><path d="M2486.9 1566L2700.5 1566L2726.5 1360.3Z" fill="#133e52" stroke="#133e52"></path><path d="M2880 1120.5L2664.5 1152.5L2726.5 1360.3Z" fill="#0e1522" stroke="#0e1522"></path><path d="M2880 1120.5L2652.5 1012.8L2664.5 1152.5Z" fill="#0b101c" stroke="#0b101c"></path><path d="M2880 1015.8L2880 758L2652.5 1012.8Z" fill="#14293a" stroke="#14293a"></path><path d="M2880 1366.3L2880 1120.5L2726.5 1360.3Z" fill="#0e1522" stroke="#0e1522"></path><path d="M0 0L0 268.8L213.5 220.8Z" fill="#101a28" stroke="#101a28"></path><path d="M0 1350.3L0 1566L175.5 1390.3Z" fill="#14293a" stroke="#14293a"></path><path d="M2880 758L2880 523.3L2655.5 563.3Z" fill="#133e52" stroke="#133e52"></path><path d="M2880 1566L2880 1366.3L2726.5 1360.3Z" fill="#143346" stroke="#143346"></path><path d="M2880 134.8L2665.5 0L2669.5 230.8Z" fill="#132434" stroke="#132434"></path><path d="M2669.5 230.8L2665.5 0L2477.9 268.8Z" fill="#142e40" stroke="#142e40"></path><path d="M2880 523.3L2880 333.5L2597.5 460.5Z" fill="#14394c" stroke="#14394c"></path><path d="M2700.5 1566L2880 1566L2726.5 1360.3Z" fill="#132434" stroke="#132434"></path><path d="M239.5 0L0 0L213.5 220.8Z" fill="#050816" stroke="#050816"></path><path d="M2880 333.5L2880 134.8L2669.5 230.8Z" fill="#143346" stroke="#143346"></path><path d="M2880 134.8L2880 0L2665.5 0Z" fill="#0e1522" stroke="#0e1522"></path></g></svg>