<?xml version="1.0" encoding="utf-8"?>
<svg viewBox="0 0 500 500" xmlns="http://www.w3.org/2000/svg">
  <g transform="matrix(0.70279, 0, 0, 0.70279, 13.373327, 30.456913)" style="">
    <svg viewBox="0 0 396 247" data-background-color="#ffffff" preserveAspectRatio="xMidYMid meet" height="623" width="1000" xmlns="http://www.w3.org/2000/svg">
      <g id="tight-bounds" transform="matrix(1,0,0,1,0.2400000000000091,-0.09999999999999432)">
        <svg viewBox="0 0 395.52 247.2" height="247.2" width="395.52">
          <g>
            <svg/>
          </g>
          <g>
            <svg viewBox="0 0 395.52 247.2" height="247.2" width="395.52">
              <g transform="matrix(1,0,0,1,130.21401257142855,47.215199999999996)">
                <svg viewBox="0 0 135.09197485714287 152.7696" height="152.7696" width="135.09197485714287">
                  <g>
                    <svg viewBox="0 0 135.09197485714287 152.7696" height="152.7696" width="135.09197485714287">
                      <g>
                        <svg viewBox="0 0 135.09197485714287 152.7696" height="152.7696" width="135.09197485714287">
                          <g>
                            <svg viewBox="0 0 135.09197485714287 152.7696" height="152.7696" width="135.09197485714287">
                              <g>
                                <svg viewBox="0 0 135.09197485714287 152.7696" height="152.7696" width="135.09197485714287">
                                  <g>
                                    <svg viewBox="0 0 135.09197485714287 152.7696" height="152.7696" width="135.09197485714287">
                                      <g transform="matrix(1,0,0,1,0,0)">
                                        <svg width="135.09197485714287" viewBox="0.15000000596046448 -35 30.950000762939453 35" height="152.7696" data-palette-color="#0063db">
                                          <path d="M22.95-13.9L22.95-8.3 8.3-8.3 8.3-13.9 22.95-13.9ZM24.9 0L14.8-28.75 16.45-28.75 6.35 0 0.15 0 12.6-35 18.65-35 31.1 0 24.9 0Z" opacity="1" transform="matrix(1,0,0,1,0,0)" fill="#0063db" class="undefined-text-0" data-fill-palette-color="primary" id="text-0"/>
                                        </svg>
                                      </g>
                                    </svg>
                                  </g>
                                </svg>
                              </g>
                            </svg>
                          </g>
                        </svg>
                      </g>
                    </svg>
                  </g>
                </svg>
              </g>
              <g>
                <path d="M0 123.6c0-68.262 55.338-123.6 123.6-123.6 30.402 0 58.24 10.976 79.768 29.183l-11.147 0c-19.26-14.022-42.974-22.294-68.621-22.295-64.458 0-116.712 52.254-116.712 116.712 0 64.458 52.254 116.712 116.712 116.712 25.647 0 49.361-8.272 68.621-22.295l11.147 0c-21.528 18.206-49.366 29.183-79.768 29.183-68.262 0-123.6-55.338-123.6-123.6z" fill="#0063db" stroke="transparent" data-fill-palette-color="tertiary"/>
              </g>
            </svg>
          </g>
        </svg>
        <rect width="395.52" height="247.2" fill="none" stroke="none" visibility="hidden"/>
      </g>
    </svg>
  </g>
</svg>