{
    "asset" : {
        "generator" : "Khronos glTF Blender I/O v1.8.19",
        "version" : "2.0"
    },
    "scene" : 0,
    "scenes" : [
        {
            "name" : "Scene",
            "nodes" : [
                0
            ]
        }
    ],
    "nodes" : [
        {
            "mesh" : 0,
            "name" : "trophy",
            "rotation" : [
                0.7062723636627197,
                -0.034341614693403244,
                -0.03434162214398384,
                0.7062723636627197
            ],
            "scale" : [
                5.790696620941162,
                5.790694713592529,
                5.790696620941162
            ]
        }
    ],
    "meshes" : [
        {
            "name" : "trophy",
            "primitives" : [
                {
                    "attributes" : {
                        "POSITION" : 0,
                        "NORMAL" : 1
                    },
                    "indices" : 2
                }
            ]
        }
    ],
    "accessors" : [
        {
            "bufferView" : 0,
            "componentType" : 5126,
            "count" : 2490,
            "max" : [
                3.457489490509033,
                2.5903751850128174,
                0.20314566791057587
            ],
            "min" : [
                -5.012285232543945,
                -2.5903751850128174,
                -9.583394050598145
            ],
            "type" : "VEC3"
        },
        {
            "bufferView" : 1,
            "componentType" : 5126,
            "count" : 2490,
            "type" : "VEC3"
        },
        {
            "bufferView" : 2,
            "componentType" : 5123,
            "count" : 9084,
            "type" : "SCALAR"
        }
    ],
    "bufferViews" : [
        {
            "buffer" : 0,
            "byteLength" : 29880,
            "byteOffset" : 0
        },
        {
            "buffer" : 0,
            "byteLength" : 29880,
            "byteOffset" : 29880
        },
        {
            "buffer" : 0,
            "byteLength" : 18168,
            "byteOffset" : 59760
        }
    ],
    "buffers" : [
        {
            "byteLength" : 77928,
            "uri" : "data:application/octet-stream;base64,"
        }
    ]
}
